<svg width="1594" height="1600" viewBox="0 0 1594 1600" fill="none" xmlns="http://www.w3.org/2000/svg">
<path d="M804.64 1087.69C521.547 1527 318.093 1382.76 249.6 1255.05C33.88 852.813 495.04 803.2 495.04 803.2C34.8266 934.293 27.1867 665.227 12.52 538.227C-24.652 216.573 125.176 204.267 204.96 220.253C557.867 290.936 804.64 761.36 804.64 761.36H795.343C795.343 761.36 1042.13 290.947 1395.02 220.253C1474.83 204.269 1624.64 216.555 1587.49 538.227C1572.82 665.232 1565.18 934.293 1104.94 803.2C1104.94 803.2 1566.1 852.82 1350.4 1255.05C1281.9 1382.79 1078.45 1527 795.343 1087.69" fill="#939BA2"/>
<g clip-path="url(#clip0_3_3)">
<path d="M804.64 1087.69C521.547 1527 318.093 1382.76 249.6 1255.05C33.88 852.813 495.04 803.2 495.04 803.2C34.8266 934.293 27.1867 665.227 12.52 538.227C-24.652 216.573 125.176 204.267 204.96 220.253C557.867 290.936 804.64 761.36 804.64 761.36H795.343C795.343 761.36 1042.13 290.947 1395.02 220.253C1474.83 204.269 1624.64 216.555 1587.49 538.227C1572.82 665.232 1565.18 934.293 1104.94 803.2C1104.94 803.2 1566.1 852.82 1350.4 1255.05C1281.9 1382.79 1078.45 1527 795.343 1087.69" fill="url(#paint0_linear_3_3)"/>
</g>
<defs>
<linearGradient id="paint0_linear_3_3" x1="800.002" y1="215.903" x2="800.002" y2="1384.1" gradientUnits="userSpaceOnUse">
<stop stop-color="#D5EDFF"/>
<stop offset="1" stop-color="#E9E8FD"/>
</linearGradient>
<clipPath id="clip0_3_3">
<rect width="800" height="1600" fill="white"/>
</clipPath>
</defs>
</svg>
